<?xml version="1.0" encoding="utf-8"?>
<!-- Generator: Adobe Illustrator 24.3.0, SVG Export Plug-In . SVG Version: 6.00 Build 0)  -->
<svg version="1.1" id="Layer_1" xmlns="http://www.w3.org/2000/svg" xmlns:xlink="http://www.w3.org/1999/xlink" x="0px" y="0px"
	 viewBox="0 0 442.9 147.6" style="enable-background:new 0 0 442.9 147.6;" xml:space="preserve">
<style type="text/css">
	.st0{fill:rgba(0, 0, 0, 0);}
	.st1{fill:#FFFFFF;}
</style>
<rect class="st0" width="447.6" height="147.6"/>
<g>
	<g>
		<path class="st1" d="M160,72.2c4.2,1,6.3,2.5,6.3,5.8c0,3.7-2.9,5.9-7,5.9c-3,0-5.8-1-8.2-3.1l2.1-2.5c1.9,1.6,3.8,2.6,6.2,2.6
			c2.1,0,3.5-1,3.5-2.5c0-1.4-0.8-2.2-4.4-3c-4.2-1-6.5-2.2-6.5-5.9c0-3.4,2.8-5.7,6.7-5.7c2.9,0,5.1,0.9,7.1,2.5l-1.9,2.6
			c-1.8-1.3-3.5-2-5.3-2c-2,0-3.2,1-3.2,2.4C155.3,70.7,156.2,71.3,160,72.2z"/>
		<path class="st1" d="M185.1,84c-5.7,0-10-4.5-10-10.1c0-5.6,4.2-10.2,10.1-10.2c3.6,0,5.8,1.3,7.7,3.1l-2.2,2.6
			c-1.6-1.5-3.3-2.4-5.5-2.4c-3.8,0-6.5,3.1-6.5,7c0,3.9,2.7,7,6.5,7c2.4,0,4-1,5.6-2.6l2.2,2.2C191.1,82.6,188.8,84,185.1,84z"/>
		<path class="st1" d="M205.8,75.4v8.3h-3.5V64h3.5v8.2h9.4V64h3.5v19.7h-3.5v-8.3H205.8z"/>
		<path class="st1" d="M243.9,67.1h-11.1v5.1h9.9v3.1h-9.9v5.3h11.3v3.1h-14.7V64h14.6V67.1z"/>
		<path class="st1" d="M263.5,76.1h-0.1l-6.2-7.2v14.7h-3.4V64h3.7l6,7.2l6-7.2h3.7v19.7h-3.5V68.9L263.5,76.1z"/>
		<path class="st1" d="M298.4,67.1h-11.1v5.1h9.9v3.1h-9.9v5.3h11.3v3.1h-14.7V64h14.6V67.1z"/>
		<path class="st1" d="M315.4,83.9c-3.1,0-5.6-1-7.9-3.1l1-1.1c2.2,2,4.2,2.9,7.1,2.9c3,0,5-1.7,5-3.9v-0.1c0-2.1-1.1-3.3-5.6-4.2
			c-4.7-1-6.6-2.6-6.6-5.5v-0.1c0-2.9,2.7-5.2,6.3-5.2c2.9,0,4.7,0.8,6.7,2.4l-0.9,1.2c-1.9-1.6-3.7-2.2-5.9-2.2
			c-2.9,0-4.8,1.7-4.8,3.7v0.1c0,2.1,1.1,3.3,5.7,4.3c4.6,0.9,6.5,2.6,6.5,5.4v0.1C321.9,81.7,319.2,83.9,315.4,83.9z"/>
		<path class="st1" d="M332.3,83.6V64h14v1.3h-12.5v7.7H345v1.3h-11.3v7.9h12.7v1.3H332.3z"/>
		<path class="st1" d="M370.9,83.6l-6.3-8.2h-6.4v8.2h-1.5V64h8.3c4.2,0,7,2.3,7,5.6v0.1c0,3.3-2.4,5.2-5.8,5.6l6.5,8.4H370.9z
			 M370.6,69.6c0-2.6-2.1-4.3-5.6-4.3h-6.7v8.9h6.6C368.2,74.2,370.6,72.5,370.6,69.6L370.6,69.6z"/>
		<path class="st1" d="M390.4,83.8h-1.3L380.5,64h1.6l7.7,18.1l7.7-18.1h1.5L390.4,83.8z"/>
		<path class="st1" d="M408.9,83.6V64h14v1.3h-12.5v7.7h11.3v1.3h-11.3v7.9H423v1.3H408.9z"/>
	</g>
	<g>
		<path class="st1" d="M116.4,40.4L77.8,18c-3.6-2.1-9.2-2.1-12.8,0L26.3,40.4c-3.6,2.1-6.4,7-6.4,11.1v44.6c0,4.2,2.8,9,6.4,11.1
			l38.7,22.3c1.8,1,4.1,1.6,6.4,1.6s4.6-0.5,6.4-1.6l38.7-22.3c3.6-2.1,6.4-7,6.4-11.1V51.5C122.9,47.3,120,42.4,116.4,40.4z
			 M117.6,96.1c0,2.3-1.8,5.4-3.8,6.6L75.2,125c-2,1.1-5.6,1.1-7.6,0l-38.7-22.3c-2-1.1-3.8-4.3-3.8-6.6V51.5c0-2.3,1.8-5.4,3.8-6.6
			l38.7-22.3c1-0.6,2.4-0.9,3.8-0.9s2.8,0.3,3.8,0.9l38.7,22.3c2,1.1,3.8,4.3,3.8,6.6V96.1z"/>
		<path class="st1" d="M100,85.7c-3.3,1.2-6.7,2.2-10.2,3c-1-16,2-33.6,2-33.8c0.1-0.8-0.1-1.7-0.6-2.4c-0.5-0.7-1.3-1.1-2.2-1.2
			c-7.1-0.5-11.8-0.7-14.8-0.7c-1.3,0-4.6,0-6.1,0c-2.9,0-7.6,0.2-14.6,0.7c-0.9,0.1-1.6,0.5-2.2,1.2c-0.5,0.7-0.7,1.5-0.6,2.4
			c0,0.2,3.1,17.7,2,33.8c-3.5-0.8-6.9-1.8-10.2-3l-2.1,5.7c9.8,3.6,20.2,5.5,30.7,5.5s20.9-1.8,30.7-5.5L100,85.7z M58.9,89.9
			c0-0.1,0-0.2,0-0.2c0.9-12.8-0.7-26.3-1.6-32.4c6.7-0.4,13.7-0.5,14-0.5c0.3,0,7.2,0,14,0.5c-0.9,6.1-2.5,19.6-1.6,32.3
			c0,0,0,0.1,0,0.3c-4.1,0.6-8.2,0.9-12.4,0.9C67.2,90.8,63,90.5,58.9,89.9z"/>
	</g>
</g>
</svg>
